<?xml version="1.0" encoding="UTF-8"?>
<!DOCTYPE svg PUBLIC "-//W3C//DTD SVG 1.1//EN" "http://www.w3.org/Graphics/SVG/1.1/DTD/svg11.dtd">
<!-- Creator: CorelDRAW X7 -->
<svg xmlns="http://www.w3.org/2000/svg" xml:space="preserve" width="823px" height="950px" version="1.1" style="shape-rendering:geometricPrecision; text-rendering:geometricPrecision; image-rendering:optimizeQuality; fill-rule:evenodd; clip-rule:evenodd"
viewBox="0 0 544 628"
 xmlns:xlink="http://www.w3.org/1999/xlink">
 <defs>
  <style type="text/css">
   <![CDATA[
    .fil0 {fill:#D5EAD8}
    .fil1 {fill:url(#id0)}
   ]]>
  </style>
  <linearGradient id="id0" gradientUnits="userSpaceOnUse" x1="88.6299" y1="550.108" x2="455.589" y2="78.3022">
   <stop offset="0" style="stop-opacity:1; stop-color:#479DA1"/>
   <stop offset="1" style="stop-opacity:1; stop-color:#807B40"/>
  </linearGradient>
 </defs>
 <g id="Layer_x0020_1">
  <metadata id="CorelCorpID_0Corel-Layer"/>
  <g id="_1691592130480">
   <polygon class="fil0" points="0,204 0,157 272,314 272,628 0,471 "/>
   <path class="fil1" d="M402 389l62 -35 0 -39 -62 33 0 -34 0 -75 -65 -37 -65 -38 -53 31 80 52 0 33 -4 9 0 -40 -45 -29 -71 41 -37 -22 0 75 0 75 65 38 65 37 65 -37 65 -38zm-130 -389l136 79 136 78 -112 65 -36 -21 72 -41 -80 -46 -116 -67 -116 67 -115 67 0 133 0 134 115 67 116 67 116 -67 116 -67 0 -80 40 -25 0 128 -136 79 -136 78 -136 -78 -136 -79 0 -157 0 -157 136 -78 136 -79z"/>
  </g>
 </g>
</svg>
